<svg xmlns="http://www.w3.org/2000/svg" viewBox="0 0 128 128">
    <g fill="#000" fill-rule="evenodd">
        <path d="M100.732 74.913c-.21 7.375-7.917 13.625-18.292 15.411-2.535-3.782-6.372-7.322-11.187-9.99a36.213 36.213 0 00-2.712-1.36l.268-.002c7.999-.14 10.24-3.055 15.936-3.779 3.796-.482 9.125-.575 15.987-.28zm.002-.499c.003.166.002.331-.002.496l.01.004c-5.372-2.24-10.725-3.313-16.058-3.22-7.999.14-10.24 3.054-15.936 3.778-3.453.44-8.173.556-14.161.35l-.67-.023a.2.2 0 00-.082.386l.096.037c-.377.035-.748.079-1.115.132a10.983 10.983 0 01-.075-1.102c-.154-8.836 10.465-16.185 23.718-16.417 13.252-.231 24.121 6.744 24.275 15.579zM81.996 36.581c.003.166.002.331-.002.496l.011.004c-5.373-2.24-10.726-3.313-16.059-3.22-7.998.14-10.24 3.055-15.936 3.779-3.452.438-8.173.555-14.161.35l-.67-.024a.2.2 0 00-.082.386c.25.098.447.174.594.229 4.81 1.789 9.603 2.641 14.38 2.558 7.999-.14 10.24-3.055 15.937-3.779 3.795-.482 9.124-.575 15.986-.28-.246 8.612-10.713 15.69-23.715 15.918-13.253.23-24.121-6.744-24.275-15.58-.155-8.834 10.464-16.184 23.717-16.416 13.253-.23 24.121 6.744 24.275 15.58z"/>
        <path d="M41.757 83.692c.08-.145.164-.288.25-.428l-.008-.01c3.534 4.627 7.633 8.233 12.298 10.819 6.996 3.878 10.395 2.474 15.69 4.695 3.21 1.347 7.356 3.606 12.44 6.777l.568.357a.2.2 0 00.263-.294c-.167-.21-.3-.375-.4-.495-3.27-3.954-6.995-7.09-11.174-9.406-6.997-3.878-10.395-2.474-15.69-4.696-3.53-1.48-8.19-4.064-13.985-7.75 4.518-7.335 17.122-8.232 28.496-1.928 11.593 6.426 17.518 17.9 13.234 25.63-4.284 7.728-17.155 8.784-28.748 2.358s-17.518-17.9-13.234-25.63z"/>
    </g>
</svg>
