<svg xmlns="http://www.w3.org/2000/svg" width="128" height="128" viewBox="0 0 128 128">
  <g fill="none" fill-rule="evenodd">
    <path fill="#000" d="M100.731805,74.9134286 C100.52114,82.2878258 92.8150375,88.5383739 82.4399146,90.3243182 C79.9051456,86.5422428 76.0677893,83.0021658 71.2526077,80.3330671 C70.3547896,79.8353984 69.449307,79.382605 68.5407418,78.974311 L68.8088694,78.9718518 L68.8088694,78.9718518 C76.8076509,78.8322325 79.0484887,75.9170616 84.7453491,75.1931464 C88.5412081,74.7107964 93.8700267,74.6175572 100.731805,74.9134286 Z M100.734186,74.413984 C100.737079,74.5797447 100.736181,74.7449825 100.731544,74.9096603 L100.742912,74.9139078 C95.3696689,72.6740094 90.0167867,71.6005999 84.6842656,71.6936794 C76.6854841,71.8332987 74.4446463,74.7484696 68.7477859,75.4723849 C65.2954552,75.9110817 60.5750775,76.0279106 54.5866528,75.8228715 L53.9160603,75.7985972 C53.8055889,75.7944401 53.7126642,75.8806249 53.7085071,75.9910963 C53.7053099,76.0760607 53.7561371,76.1537739 53.8352603,76.1848978 L53.9311199,76.2222298 C53.5544829,76.2566904 53.1827661,76.3005055 52.8164439,76.353636 C52.7732691,75.9893866 52.7479633,75.6221786 52.7414966,75.2516995 C52.5872774,66.4164894 63.2057876,59.0666074 76.4586028,58.8352786 C89.711418,58.6039499 100.579967,65.5787739 100.734186,74.413984 Z"/>
    <path fill="#000" d="M58,13 C58.1657859,13 58.3309829,13.0037822 58.4955547,13.0112922 L58.5,13 C56.1666667,18.3333333 55,23.6666667 55,29 C55,37 57.8756189,39.2913732 58.5,45 C58.8783786,48.4594612 58.9128077,53.181159 58.6032874,59.1650932 L58.5673134,59.8351599 C58.5612289,59.9455419 58.6457788,60.0399566 58.7561608,60.046041 C58.8410565,60.0507206 58.9196449,60.0012575 58.952145,59.9226895 C59.0544554,59.6753569 59.1341692,59.4788223 59.1912863,59.3330856 C61.0637621,54.5553904 62,49.7776952 62,45 C62,37 59.1243811,34.7086268 58.5,29 C58.0839704,25.1963009 58.0837461,19.8666667 58.499327,13.0110972 C67.1049577,13.4073439 74,23.9958544 74,37 C74,50.254834 66.836556,61 58,61 C49.163444,61 42,50.254834 42,37 C42,23.745166 49.163444,13 58,13 Z" transform="rotate(89 58 37)"/>
    <path fill="#000" d="M62.7478269,71.3269824 C62.9136128,71.3269824 63.0788098,71.3307646 63.2433816,71.3382745 L63.2478269,71.3269824 C60.9144936,76.6603157 59.7478269,81.993649 59.7478269,87.3269824 C59.7478269,95.3269824 62.6234458,97.6183556 63.2478269,103.326982 C63.6262055,106.786444 63.6606346,111.508141 63.3511143,117.492076 L63.3151403,118.162142 C63.3090558,118.272524 63.3936057,118.366939 63.5039877,118.373023 C63.5888834,118.377703 63.6674718,118.32824 63.6999719,118.249672 C63.8022823,118.002339 63.8819961,117.805805 63.9391132,117.660068 C65.811589,112.882373 66.7478269,108.104678 66.7478269,103.326982 C66.7478269,95.3269824 63.8722079,93.0356091 63.2478269,87.3269824 C62.8317973,83.5232833 62.831573,78.1936491 63.2471539,71.3380796 C71.8527846,71.7343263 78.7478269,82.3228368 78.7478269,95.3269824 C78.7478269,108.581816 71.5843829,119.326982 62.7478269,119.326982 C53.9112709,119.326982 46.7478269,108.581816 46.7478269,95.3269824 C46.7478269,82.0721484 53.9112709,71.3269824 62.7478269,71.3269824 Z" transform="rotate(-61 62.748 95.327)"/>
  </g>
</svg>
