<svg xmlns="http://www.w3.org/2000/svg"  viewBox="0 0 128 128">
    <g fill="none" fill-rule="evenodd" stroke="#000">
        <path stroke-width="7" d="M67.265 14.52a7.477 7.477 0 00-5.731-.331 7.477 7.477 0 00-4.286 3.818L51.55 29.793l-11.941-5.366a7.5 7.5 0 00-10.345 8.68l3.21 12.692-12.595 3.565a7.5 7.5 0 00-2.345 13.3L28.15 70.32 20.793 81.15a7.5 7.5 0 006.752 11.695l13.056-.958 1.324 13.024a7.5 7.5 0 0012.69 4.618L64 100.402l9.385 9.126a7.5 7.5 0 0012.69-4.618L87.4 91.886l13.056.958a7.5 7.5 0 006.752-11.695L99.849 70.32l10.617-7.658a7.5 7.5 0 00-2.345-13.3L95.525 45.8l3.211-12.691a7.5 7.5 0 00-10.345-8.68l-11.94 5.365-5.699-11.786a7.5 7.5 0 00-3.487-3.487z"/>
        <circle cx="64" cy="64" r="22" stroke-width="4"/>
    </g>
</svg>
