<svg xmlns="http://www.w3.org/2000/svg" width="128" height="128" viewBox="0 0 128 128">
  <g fill="none" fill-rule="evenodd">
    <path fill="#000" d="M64,16 C90.509668,16 112,37.490332 112,64 C112,90.509668 90.509668,112 64,112 C37.490332,112 16,90.509668 16,64 C16,37.490332 37.490332,16 64,16 Z M48,92 C45.790861,92 44,93.790861 44,96 C44,98.209139 45.790861,100 48,100 C50.209139,100 52,98.209139 52,96 C52,93.790861 50.209139,92 48,92 Z M64,92 C61.790861,92 60,93.790861 60,96 C60,98.209139 61.790861,100 64,100 C66.209139,100 68,98.209139 68,96 C68,93.790861 66.209139,92 64,92 Z M80,92 C77.790861,92 76,93.790861 76,96 C76,98.209139 77.790861,100 80,100 C82.209139,100 84,98.209139 84,96 C84,93.790861 82.209139,92 80,92 Z M40,76 C37.790861,76 36,77.790861 36,80 C36,82.209139 37.790861,84 40,84 C42.209139,84 44,82.209139 44,80 C44,77.790861 42.209139,76 40,76 Z M56,76 C53.790861,76 52,77.790861 52,80 C52,82.209139 53.790861,84 56,84 C58.209139,84 60,82.209139 60,80 C60,77.790861 58.209139,76 56,76 Z M72,76 C69.790861,76 68,77.790861 68,80 C68,82.209139 69.790861,84 72,84 C74.209139,84 76,82.209139 76,80 C76,77.790861 74.209139,76 72,76 Z M88,76 C85.790861,76 84,77.790861 84,80 C84,82.209139 85.790861,84 88,84 C90.209139,84 92,82.209139 92,80 C92,77.790861 90.209139,76 88,76 Z M32,60 C29.790861,60 28,61.790861 28,64 C28,66.209139 29.790861,68 32,68 C34.209139,68 36,66.209139 36,64 C36,61.790861 34.209139,60 32,60 Z M48,60 C45.790861,60 44,61.790861 44,64 C44,66.209139 45.790861,68 48,68 C50.209139,68 52,66.209139 52,64 C52,61.790861 50.209139,60 48,60 Z M64,60 C61.790861,60 60,61.790861 60,64 C60,66.209139 61.790861,68 64,68 C66.209139,68 68,66.209139 68,64 C68,61.790861 66.209139,60 64,60 Z M80,60 C77.790861,60 76,61.790861 76,64 C76,66.209139 77.790861,68 80,68 C82.209139,68 84,66.209139 84,64 C84,61.790861 82.209139,60 80,60 Z M96,60 C93.790861,60 92,61.790861 92,64 C92,66.209139 93.790861,68 96,68 C98.209139,68 100,66.209139 100,64 C100,61.790861 98.209139,60 96,60 Z M40,44 C37.790861,44 36,45.790861 36,48 C36,50.209139 37.790861,52 40,52 C42.209139,52 44,50.209139 44,48 C44,45.790861 42.209139,44 40,44 Z M56,44 C53.790861,44 52,45.790861 52,48 C52,50.209139 53.790861,52 56,52 C58.209139,52 60,50.209139 60,48 C60,45.790861 58.209139,44 56,44 Z M72,44 C69.790861,44 68,45.790861 68,48 C68,50.209139 69.790861,52 72,52 C74.209139,52 76,50.209139 76,48 C76,45.790861 74.209139,44 72,44 Z M88,44 C85.790861,44 84,45.790861 84,48 C84,50.209139 85.790861,52 88,52 C90.209139,52 92,50.209139 92,48 C92,45.790861 90.209139,44 88,44 Z M48,28 C45.790861,28 44,29.790861 44,32 C44,34.209139 45.790861,36 48,36 C50.209139,36 52,34.209139 52,32 C52,29.790861 50.209139,28 48,28 Z M64,28 C61.790861,28 60,29.790861 60,32 C60,34.209139 61.790861,36 64,36 C66.209139,36 68,34.209139 68,32 C68,29.790861 66.209139,28 64,28 Z M80,28 C77.790861,28 76,29.790861 76,32 C76,34.209139 77.790861,36 80,36 C82.209139,36 84,34.209139 84,32 C84,29.790861 82.209139,28 80,28 Z"/>
    <rect width="24" height="16" x="18.059" y="22.059" fill="#000" rx="8" transform="rotate(-45 30.059 30.059)"/>
    <rect width="24" height="16" x="85.941" y="89.941" fill="#000" rx="8" transform="rotate(-45 97.941 97.941)"/>
    <rect width="24" height="16" x="18.059" y="89.941" fill="#000" rx="8" transform="rotate(-135 30.059 97.941)"/>
    <rect width="24" height="16" x="85.941" y="22.059" fill="#000" rx="8" transform="rotate(-135 97.941 30.059)"/>
  </g>
</svg>
