<svg xmlns="http://www.w3.org/2000/svg" viewBox="0 0 128 128">
    <g fill="#000" fill-rule="evenodd">
        <path d="M64 16c26.51 0 48 21.49 48 48s-21.49 48-48 48-48-21.49-48-48 21.49-48 48-48zM48 92a4 4 0 100 8 4 4 0 000-8zm16 0a4 4 0 100 8 4 4 0 000-8zm16 0a4 4 0 100 8 4 4 0 000-8zM40 76a4 4 0 100 8 4 4 0 000-8zm16 0a4 4 0 100 8 4 4 0 000-8zm16 0a4 4 0 100 8 4 4 0 000-8zm16 0a4 4 0 100 8 4 4 0 000-8zM32 60a4 4 0 100 8 4 4 0 000-8zm16 0a4 4 0 100 8 4 4 0 000-8zm16 0a4 4 0 100 8 4 4 0 000-8zm16 0a4 4 0 100 8 4 4 0 000-8zm16 0a4 4 0 100 8 4 4 0 000-8zM40 44a4 4 0 100 8 4 4 0 000-8zm16 0a4 4 0 100 8 4 4 0 000-8zm16 0a4 4 0 100 8 4 4 0 000-8zm16 0a4 4 0 100 8 4 4 0 000-8zM48 28a4 4 0 100 8 4 4 0 000-8zm16 0a4 4 0 100 8 4 4 0 000-8zm16 0a4 4 0 100 8 4 4 0 000-8z"/>
        <rect width="24" height="16" x="18.059" y="22.059" rx="8" transform="rotate(-45 30.059 30.059)"/>
        <rect width="24" height="16" x="85.941" y="89.941" rx="8" transform="rotate(-45 97.941 97.941)"/>
        <rect width="24" height="16" x="18.059" y="89.941" rx="8" transform="rotate(-135 30.059 97.941)"/>
        <rect width="24" height="16" x="85.941" y="22.059" rx="8" transform="rotate(-135 97.941 30.059)"/>
    </g>
</svg>
