<svg xmlns="http://www.w3.org/2000/svg" viewBox="0 0 128 128">
    <g fill="#000" fill-rule="evenodd">
        <path d="M78.142 88c7.302 10.054 10.548 18.114 9.736 24.178-1.217 9.096-17.038 9.096-19.472 0-1.623-6.064 1.622-14.124 9.736-24.178zm-16-40c7.302 10.054 10.548 18.114 9.736 24.178-1.217 9.096-17.038 9.096-19.472 0-1.623-6.064 1.622-14.124 9.736-24.178zM-34.9 69.053c11.454 8.378 20.913 10.099 28.38 5.163 19.563-12.935 25.04-33.04 44.457-46.038 7.071-2.44 13.223-1.133 18.456 3.921l4.168-4.316c-7.193-10.022-16.653-11.743-28.378-5.162-18.83 10.567-27.828 34.574-44.459 46.037-6.13 1.495-11.818-.292-17.066-5.36l-5.557 5.755z"/>
    </g>
</svg>
