<svg xmlns="http://www.w3.org/2000/svg" width="128" height="128" viewBox="0 0 128 128">
  <g fill="none" fill-rule="evenodd">
    <path fill="#000" d="M78.1419878 88C85.4442191 98.0544584 88.6896552 106.113747 87.8782961 112.177866 86.6612576 121.274045 70.8397566 121.274045 68.4056795 112.177866 66.7829615 106.113747 70.0283976 98.0544584 78.1419878 88zM62.1419878 48C69.4442191 58.0544584 72.6896552 66.1137471 71.8782961 72.1778661 70.6612576 81.2740446 54.8397566 81.2740446 52.4056795 72.1778661 50.7829615 66.1137471 54.0283976 58.0544584 62.1419878 48z"/>
    <path fill="#000" d="M-7,96.48643 C7.05839977,94.5569643 15.0583998,89.223631 17,80.48643 C22.0875997,57.5922315 12.061763,39.3257763 17,16.48643 C20.3917331,9.81976331 25.7250664,6.48642998 33,6.48642998 L33,0.486429979 C20.8636602,-1.72577072 12.8636602,3.60756261 9,16.48643 C2.79549032,37.1681289 13,60.6876019 9,80.48643 C5.62890625,85.8197633 0.295572917,88.48643 -7,88.48643 L-7,96.48643 Z" transform="rotate(44 13 48.243)"/>
  </g>
</svg>
