<svg xmlns="http://www.w3.org/2000/svg" width="128" height="128" viewBox="0 0 128 128">
  <g fill="none" fill-rule="evenodd">
    <rect width="80" height="8" x="24" y="24" fill="#000" rx="4"/>
    <path fill="#000" d="M82,24 C85.3137085,24 88,26.6862915 88,30 L88,105 C88,113.284271 81.2842712,120 73,120 L55,120 C46.7157288,120 40,113.284271 40,105 L40,30 C40,26.6862915 42.6862915,24 46,24 L82,24 Z M74,32 L54,32 C50.6862915,32 48,34.6862915 48,38 L48,38 L48,104 C48,108.418278 51.581722,112 56,112 L56,112 L72,112 C76.418278,112 80,108.418278 80,104 L80,104 L80,38 C80,34.6862915 77.3137085,32 74,32 L74,32 Z"/>
    <path fill="#000" fill-rule="nonzero" d="M66,8 L66,77 L74,77 L64.5,96 L55,77 L63,77 L63,8 L66,8 Z"/>
    <rect width="8" height="64" x="24" y="56" fill="#000" rx="4"/>
    <rect width="8" height="64" x="96" y="56" fill="#000" rx="4"/>
  </g>
</svg>
