<svg xmlns="http://www.w3.org/2000/svg" viewBox="0 0 128 128">
    <g fill="#000" fill-rule="evenodd">
        <rect width="80" height="8" x="24" y="24" rx="4"/>
        <path d="M82 24a6 6 0 016 6v75c0 8.284-6.716 15-15 15H55c-8.284 0-15-6.716-15-15V30a6 6 0 016-6h36zm-8 8H54a6 6 0 00-6 6v66a8 8 0 008 8h16a8 8 0 008-8V38a6 6 0 00-6-6z"/>
        <path fill-rule="nonzero" d="M66 8v69h8l-9.5 19L55 77h8V8h3z"/>
        <rect width="8" height="64" x="24" y="56" rx="4"/>
        <rect width="8" height="64" x="96" y="56" rx="4"/>
    </g>
</svg>
