<svg xmlns="http://www.w3.org/2000/svg" viewBox="0 0 128 128">
    <g fill="#000" fill-rule="evenodd">
        <rect width="8" height="88" x="60" y="4" rx="4"/>
        <rect width="24" height="40" x="52" y="84" rx="12"/>
        <path fill-rule="nonzero" d="M104.889 36.702a1.5 1.5 0 11-1.778 2.417C98.11 35.439 84.982 33.5 64 33.5c-14.87 0-28.889 1.98-39.54 5.307C15.09 41.734 9.5 45.446 9.5 48c0 2.561 5.418 6.15 14.673 8.96 10.52 3.194 24.575 5.08 39.827 5.08 14.415 0 27.498-2.215 39.255-6.64l-3.551-6.98 21.242-.147-12.628 17.083-3.696-7.266C92.435 62.725 78.892 65.04 64 65.04 32.84 65.04 6.5 57.04 6.5 48c0-9.045 27.068-17.5 57.5-17.5 21.638 0 35.177 2 40.889 6.202z"/>
    </g>
</svg>
