<svg xmlns="http://www.w3.org/2000/svg" viewBox="0 0 128 128">
    <g fill="none" fill-rule="evenodd">
        <path fill="#D8D8D8" d="M56.269 43h16.06v38.216c7.78 9.856 9.037 18.45 3.768 25.784C68 111.978 60 111.978 53.969 107c-6.646-7.333-5.88-15.928 2.3-25.784V43z"/>
        <path fill="#000" d="M64 12c6.627 0 12 5.373 12 12v55.999c4.858 3.649 8 9.458 8 16.001 0 11.046-8.954 20-20 20s-20-8.954-20-20c0-6.543 3.142-12.353 8-16.002V24c0-6.627 5.373-12 12-12zm0 8a4 4 0 00-4 4v60.683C55.34 86.33 52 90.775 52 96c0 6.627 5.373 12 12 12s12-5.373 12-12c0-5.225-3.339-9.67-8-11.317V24a4 4 0 00-4-4z"/>
    </g>
</svg>
