<svg xmlns="http://www.w3.org/2000/svg" width="128" height="128" viewBox="0 0 128 128">
  <g fill="none" fill-rule="evenodd" transform="translate(44 12)">
    <path fill="#D8D8D8" d="M12.2687181,31 L28.3282884,31 L28.3282884,69.2158203 C36.1094295,79.0719401 37.3656144,87.6666667 32.0968431,95 C24,99.9775391 16,99.9775391 9.96875,95 C3.32291667,87.6666667 4.08957269,79.0719401 12.2687181,69.2158203 L12.2687181,31 Z"/>
    <path fill="#000" d="M20,0 C26.627417,-1.21743675e-15 32,5.372583 32,12 L32.0005148,67.998922 C36.8580088,71.647771 40,77.4569598 40,84 C40,95.045695 31.045695,104 20,104 C8.954305,104 0,95.045695 0,84 C0,77.4565086 3.14242454,71.6469698 8.00049011,67.9981671 L8,12 C8,5.372583 13.372583,1.21743675e-15 20,0 Z M20,8 C17.790861,8 16,9.790861 16,12 L16,12 L16.0000801,72.6827945 C11.3392688,74.3301176 8,78.7750948 8,84 C8,90.627417 13.372583,96 20,96 C26.627417,96 32,90.627417 32,84 C32,78.7754669 28.6612069,74.3307507 24.0009157,72.6831465 L24,12 C24,9.790861 22.209139,8 20,8 Z"/>
  </g>
</svg>
