<svg xmlns="http://www.w3.org/2000/svg" width="128" height="128" viewBox="0 0 128 128">
  <g fill="none" fill-rule="evenodd">
    <path fill="#000" d="M64,8 C94.927946,8 120,33.072054 120,64 C120,94.927946 94.927946,120 64,120 C33.072054,120 8,94.927946 8,64 C8,33.072054 33.072054,8 64,8 Z M64,16 C37.490332,16 16,37.490332 16,64 C16,90.509668 37.490332,112 64,112 C90.509668,112 112,90.509668 112,64 C112,37.490332 90.509668,16 64,16 Z"/>
    <rect width="8" height="48" x="60" y="21" fill="#000" rx="4"/>
    <rect width="32" height="9" x="60" y="60" fill="#000" rx="4.5"/>
  </g>
</svg>
