<svg xmlns="http://www.w3.org/2000/svg" viewBox="0 0 72 72">
    <g fill="#000" fill-rule="evenodd">
        <path d="M68.984 25.497c-.21 7.374-7.917 13.625-18.292 15.41-2.535-3.781-6.372-7.321-11.187-9.99a36.213 36.213 0 00-2.712-1.36l.268-.002c7.999-.14 10.24-3.054 15.937-3.778 3.795-.483 9.124-.576 15.986-.28zm.002-.5c.003.166.002.332-.002.496l.011.004c-5.373-2.24-10.726-3.313-16.059-3.22-7.998.14-10.24 3.055-15.936 3.779-3.452.439-8.173.555-14.161.35l-.67-.024a.2.2 0 00-.082.386l.096.038c-.376.034-.748.078-1.114.131a10.983 10.983 0 01-.075-1.102C20.839 17 31.458 9.65 44.71 9.42c13.253-.231 24.121 6.743 24.275 15.579z"/>
        <path d="M10.01 34.275c.08-.145.163-.288.25-.428l-.008-.01c3.533 4.627 7.632 8.233 12.297 10.819 6.997 3.878 10.395 2.474 15.69 4.695 3.21 1.347 7.356 3.606 12.44 6.777l.569.357a.2.2 0 00.263-.294c-.167-.21-.3-.375-.4-.495-3.27-3.954-6.996-7.09-11.174-9.406-6.997-3.878-10.395-2.474-15.691-4.696-3.529-1.48-8.19-4.063-13.985-7.75 4.52-7.335 17.123-8.232 28.496-1.928 11.593 6.426 17.518 17.901 13.234 25.63-4.284 7.728-17.155 8.784-28.747 2.358-11.593-6.426-17.518-17.9-13.234-25.63z"/>
    </g>
</svg>
