<svg xmlns="http://www.w3.org/2000/svg" viewBox="0 0 176 176">
    <g fill-rule="evenodd">
        <path d="M120 120l16.764 33.528c2.47 4.94.468 10.946-4.472 13.416A10 10 0 01127.82 168H48.18c-5.523 0-10-4.477-10-10a10 10 0 011.056-4.472L56 120h9.476l-17.494 34.177a4 4 0 003.36 5.818l.2.005h72.918a4 4 0 003.652-5.631l-.092-.192L110.523 120H120zm-51.056-8h41.622a8 8 0 016.784 3.76L120 120H56c2.451-4.903 7.463-8 12.944-8zM56.984 80l-20.48-42.255A4 4 0 0140.102 32h87.72c5.522 0 10 4.477 10 10a10 10 0 01-1.057 4.472L120.003 80h-9.476l17.5-34.189a4 4 0 00-3.353-5.817l-.2-.006-77.836-.137a1 1 0 00-.94 1.348l.047.107L65.52 80h-8.535z"/>
        <path d="M120 76v18c0 5.523-4.477 10-10 10H66c-5.523 0-10-4.477-10-10V76h64zm-12 7H68a4 4 0 00-4 4v5a4 4 0 004 4h40a4 4 0 004-4v-5a4 4 0 00-4-4z"/>
        <path d="M117 96v24H59V96h58zm-10 8H71a4 4 0 100 8h36a4 4 0 100-8z"/>
        <path d="M78.47 112H79a3.47 3.47 0 013.434 3.96l-6.943 48.606A4 4 0 0171.53 168H71a3.47 3.47 0 01-3.434-3.96l6.943-48.606A4 4 0 0178.47 112zM97 112h.53a4 4 0 013.96 3.434l6.944 48.606A3.47 3.47 0 01105 168h-.53a4 4 0 01-3.96-3.434l-6.944-48.606A3.47 3.47 0 0197 112zM97.579 83H97a3.421 3.421 0 01-3.38-3.952l6.85-43.668A4 4 0 01104.42 32H105a3.421 3.421 0 013.38 3.952l-6.85 43.668A4 4 0 0197.58 83zM79 83h-.579a4 4 0 01-3.951-3.38l-6.85-43.668A3.421 3.421 0 0171 32h.579a4 4 0 013.951 3.38l6.85 43.668A3.421 3.421 0 0179 83z"/>
        <path d="M88 20c16.71 0 31.578 4.698 41.091 12H115.24c-7.837-3.162-17.192-5-27.24-5-10.048 0-19.403 1.838-27.24 5H46.908C56.422 24.698 71.29 20 88 20z"/>
        <path d="M84.595 8h6.683a4 4 0 013.946 4.658l-1.667 10A4 4 0 0189.611 26h-3.626a4 4 0 01-3.962-3.45l-1.39-10A4 4 0 0184.595 8z"/>
        <rect width="27" height="16" x="129" y="32" rx="4"/>
        <rect width="11" height="56" x="145" y="32" rx="4"/>
    </g>
</svg>
