<svg xmlns="http://www.w3.org/2000/svg" width="128" height="128" viewBox="0 0 128 128">
  <g fill="none" fill-rule="evenodd">
    <path fill="#000" d="M57.3665631,42.7331263 L79.6583592,87.3167184 C81.1402947,90.2805894 79.9389486,93.8846277 76.9750776,95.3665631 C76.141945,95.7831294 75.2232666,96 74.2917961,96 L29.7082039,96 C26.3944954,96 23.7082039,93.3137085 23.7082039,90 C23.7082039,89.0685294 23.9250745,88.149851 24.3416408,87.3167184 L46.6334369,42.7331263 C48.1153723,39.7692553 51.7194106,38.5679092 54.6832816,40.0498447 C55.844446,40.6304269 56.7859809,41.5719619 57.3665631,42.7331263 Z" transform="rotate(90 52 64)"/>
    <path fill="#000" d="M97.3665631,42.7331263 L119.658359,87.3167184 C121.140295,90.2805894 119.938949,93.8846277 116.975078,95.3665631 C116.141945,95.7831294 115.223267,96 114.291796,96 L69.7082039,96 C66.3944954,96 63.7082039,93.3137085 63.7082039,90 C63.7082039,89.0685294 63.9250745,88.149851 64.3416408,87.3167184 L86.6334369,42.7331263 C88.1153723,39.7692553 91.7194106,38.5679092 94.6832816,40.0498447 C95.844446,40.6304269 96.7859809,41.5719619 97.3665631,42.7331263 Z" transform="rotate(90 92 64)"/>
  </g>
</svg>
