<svg xmlns="http://www.w3.org/2000/svg" width="72" height="72" viewBox="0 0 72 72">
  <g fill="none" fill-rule="evenodd">
    <path fill="#000" d="M36,0 C55.882251,0 72,16.117749 72,36 C72,55.882251 55.882251,72 36,72 C16.117749,72 0,55.882251 0,36 C0,16.117749 16.117749,0 36,0 Z M36,7 C19.9837423,7 7,19.9837423 7,36 C7,52.0162577 19.9837423,65 36,65 C52.0162577,65 65,52.0162577 65,36 C65,19.9837423 52.0162577,7 36,7 Z"/>
    <rect width="8" height="32" x="32" y="8" fill="#000" rx="4"/>
    <rect width="24" height="8" x="32" y="32" fill="#000" rx="4"/>
  </g>
</svg>
