<svg xmlns="http://www.w3.org/2000/svg" width="176" height="176" viewBox="0 0 176 176">
  <g fill="none" fill-rule="evenodd">
    <rect width="112" height="8" x="32" y="128" fill="#000" rx="4"/>
    <rect width="128" height="8" x="24" y="32" fill="#000" rx="4"/>
    <path fill="#000" d="M64,147.944994 C64,150.08719 65.6839685,151.836073 67.8003597,151.940099 L68,151.944994 L108,151.944994 C110.142195,151.944994 111.891079,150.261026 111.995105,148.144635 L112,147.944994 L112.000695,128 C116.500311,128.49776 120,132.312679 120,136.944994 L120,150.944994 C120,155.915557 115.970563,159.944994 111,159.944994 L65,159.944994 C60.0294373,159.944994 56,155.915557 56,150.944994 L56,137.944994 C56,133.107072 59.4355289,129.07156 64.0000191,128.145027 L64,147.944994 Z"/>
    <polygon fill="#000" points="64 128 24 36 32 36 72 128"/>
    <polygon fill="#000" points="104 128 144 36 152 36 112 128"/>
    <path fill="#000" d="M148.631231,48 C157.467787,48 164.631231,55.163444 164.631231,64 C164.631231,64.7571019 164.577493,65.5132491 164.470423,66.2627417 L161.041851,90.2627417 C159.915797,98.1451215 153.165065,104 145.202659,104 L137.527541,104 C131.088618,104 125.538048,100.196511 123,94.7137011 L131.031,76.242 L128.993172,86.4310709 C128.889855,86.9476564 128.837817,87.4731841 128.837817,88 C128.837817,92.3349143 132.285655,95.8645429 136.588638,95.9961932 L136.837817,96 L144.520955,96 C148.247734,96 151.468206,93.4292813 152.310703,89.8222449 L152.3656,89.5689291 L157.1656,65.5689291 C157.268917,65.0523436 157.320955,64.5268159 157.320955,64 C157.320955,59.581722 153.739233,56 149.320955,56 L141.637817,56 C140.983535,56 140.344859,56.079235 139.731915,56.2294021 L143.31,48 L148.631231,48 Z"/>
    <path fill="#000" d="M108,48 L108.876894,48 C110.712365,48 112.312297,49.2491895 112.757464,51.0298575 L128,112 L128,112 L105.404494,51.7453167 C104.866947,50.3118582 105.593227,48.7140426 107.026685,48.1764956 C107.337917,48.0597836 107.667604,48 108,48 Z" transform="matrix(-1 0 0 1 232 0)"/>
    <path fill="#000" d="M96,48 L96.2421951,48 C98.3544482,48 100.102647,49.6423472 100.234405,51.7504869 L104,112 L104,112 L92.7371541,51.9314887 C92.3992754,50.1294687 93.5861964,48.394738 95.3882164,48.0568593 C95.5899481,48.0190346 95.7947529,48 96,48 Z" transform="matrix(-1 0 0 1 196 0)"/>
    <path fill="#000" d="M79.6116424,48 L79.8447266,48 C81.6825272,48 83.172359,49.4898318 83.172359,51.3276325 C83.172359,51.5307633 83.1537593,51.7334675 83.1167929,51.9332064 L72,112 L72,112 L75.6188406,51.760137 C75.7457271,49.6479626 77.4956601,48 79.6116424,48 Z" transform="matrix(-1 0 0 1 155.845 0)"/>
    <path fill="#000" d="M67.1231056,48 L68,48 C69.5309344,48 70.7720019,49.2410675 70.7720019,50.7720019 C70.7720019,51.104398 70.7122183,51.4340845 70.5955062,51.7453167 L48,112 L48,112 L63.2425356,51.0298575 C63.6877026,49.2491895 65.2876351,48 67.1231056,48 Z" transform="matrix(-1 0 0 1 120 0)"/>
    <rect width="112" height="8" x="32" y="128" fill="#000" rx="4"/>
  </g>
</svg>
