<svg xmlns="http://www.w3.org/2000/svg" viewBox="0 0 176 176">
    <g fill="#000" fill-rule="evenodd">
        <rect width="112" height="8" x="32" y="128" rx="4"/>
        <rect width="128" height="8" x="24" y="32" rx="4"/>
        <path d="M64 147.945a4 4 0 003.8 3.995l.2.005h40a4 4 0 003.995-3.8l.005-.2V128c4.5.498 8 4.313 8 8.945v14a9 9 0 01-9 9H65a9 9 0 01-9-9v-13c0-4.838 3.436-8.873 8-9.8v19.8zM64 128L24 36h8l40 92zM104 128l40-92h8l-40 92z"/>
        <path d="M148.631 48c8.837 0 16 7.163 16 16a16 16 0 01-.16 2.263l-3.43 24A16 16 0 01145.204 104h-7.675c-6.44 0-11.99-3.803-14.528-9.286l8.031-18.472-2.038 10.19a8 8 0 007.596 9.564l.249.004h7.683a8 8 0 007.79-6.178l.055-.253 4.8-24A8 8 0 00149.32 56h-7.683c-.654 0-1.293.08-1.906.23L143.31 48h5.321zM124 48h-.877a4 4 0 00-3.88 3.03L104 112l22.596-60.255A2.772 2.772 0 00124 48zM100 48h-.242a4 4 0 00-3.992 3.75L92 112l11.263-60.069A3.32 3.32 0 00100 48zM76.233 48H76a3.328 3.328 0 00-3.272 3.933L83.845 112l-3.619-60.24A4 4 0 0076.233 48zM52.877 48H52a2.772 2.772 0 00-2.596 3.745L72 112 56.757 51.03a4 4 0 00-3.88-3.03z"/>
        <rect width="112" height="8" x="32" y="128" rx="4"/>
    </g>
</svg>
