<svg xmlns="http://www.w3.org/2000/svg" width="176" height="176" viewBox="0 0 176 176">
  <g fill="none" fill-rule="evenodd">
    <path fill="#000" d="M110,32 C115.522847,32 120,36.4771525 120,42 L120,150 C120,155.522847 115.522847,160 110,160 L66,160 C60.4771525,160 56,155.522847 56,150 L56,42 C56,36.4771525 60.4771525,32 66,32 L110,32 Z M108,40 L68,40 C65.790861,40 64,41.790861 64,44 L64,44 L64,148 C64,150.209139 65.790861,152 68,152 L68,152 L108,152 C110.209139,152 112,150.209139 112,148 L112,148 L112,44 C112,41.790861 110.209139,40 108,40 L108,40 Z"/>
    <rect width="80" height="8" x="48" y="152" fill="#000" rx="4"/>
    <path fill="#000" d="M99,16 C103.970563,16 108,20.0294373 108,25 L108,115 C108,119.970563 103.970563,124 99,124 L77,124 C72.0294373,124 68,119.970563 68,115 L68,25 C68,20.0294373 72.0294373,16 77,16 L99,16 Z M96,24 L80,24 C77.790861,24 76,25.790861 76,28 L76,28 L76,112 C76,114.209139 77.790861,116 80,116 L80,116 L96,116 C98.209139,116 100,114.209139 100,112 L100,112 L100,28 C100,25.790861 98.209139,24 96,24 L96,24 Z"/>
    <rect width="64" height="8" x="56" y="16" fill="#000" rx="4"/>
    <rect width="16" height="8" x="88" y="48" fill="#000" rx="4"/>
    <rect width="16" height="8" x="88" y="72" fill="#000" rx="4"/>
    <rect width="16" height="8" x="88" y="96" fill="#000" rx="4"/>
  </g>
</svg>
