<svg xmlns="http://www.w3.org/2000/svg" width="176" height="176" viewBox="0 0 176 176">
  <path fill-rule="evenodd" d="M156,36 L156,84 C156,86.209139 154.209139,88 152,88 L149,88 C146.790861,88 145,86.209139 145,84 L144.999588,48 L136.001588,48 L120.002851,80 L119.999588,80 L120,94 C120,97.7012273 117.989207,100.932809 115.000447,102.66192 L115.000242,112.581615 C117.859148,113.73898 119.896765,116.501015 119.996193,119.750821 L120,120 L119.99934,120 L136.763932,153.527864 C139.233825,158.467649 137.231581,164.474379 132.291796,166.944272 C130.903242,167.638549 129.372111,168 127.81966,168 L48.1803399,168 C42.6574924,168 38.1803399,163.522847 38.1803399,158 C38.1803399,156.447549 38.5417908,154.916418 39.236068,153.527864 L55.9993399,120 L56,120 C56,117.038937 57.6087228,114.453611 59.99984,113.07035 L60.000191,102.000876 C57.571189,100.176472 56,97.2717214 56,94 L55.9995885,77.97 L36.5029982,37.7445843 C35.5394909,35.7566333 36.3699666,33.3640037 38.3579175,32.4004965 C38.9017261,32.1369268 39.4981866,32 40.1025017,32 L46.9084252,32.0002215 C55.2077154,25.63031 67.5827131,21.2416105 81.6999891,20.2252055 L80.6326019,12.5507465 C80.328433,10.3626477 81.85566,8.34226553 84.0437588,8.03809663 C84.2262445,8.01272919 84.4102649,8 84.5945053,8 L91.2781583,8 C93.4872973,8 95.2781583,9.790861 95.2781583,12 C95.2781583,12.2203234 95.259955,12.4402702 95.223734,12.6575959 L93.9659298,20.2018049 C108.221884,21.1725552 120.726697,25.5800465 129.09139,32.0000799 L127.821851,32 C128.941442,32 130.01806,32.1839902 131.023117,32.5233836 C131.605865,32.1898271 132.280764,32 133,32 L152,32 C154.209139,32 156,33.790861 156,36 Z M73.8565885,120 L65.4753399,120 L47.9806599,154.177316 C47.6918587,154.741485 47.5412527,155.366207 47.5412527,156 C47.5412527,158.142195 49.2252212,159.891079 51.3416124,159.995105 L51.5412527,160 L68.1425885,160 L73.8565885,120 Z M94.1425885,120 L81.8565885,120 L76.1425885,160 L99.8565885,160 L94.1425885,120 Z M110.52334,120 L102.142588,120 L107.856588,160 L124.458747,160 C125.09254,160 125.717262,159.849394 126.281432,159.560593 C128.184459,158.586424 128.974545,156.297811 128.111206,154.368941 L128.01934,154.177316 L110.52334,120 Z M105,104 L72,104 C69.790861,104 68,105.790861 68,108 C68,110.142195 69.6839685,111.891079 71.8003597,111.995105 L72,112 L105,112 C107.209139,112 109,110.209139 109,108 C109,105.790861 107.209139,104 105,104 Z M108,83 L68,83 C65.8578046,83 64.1089211,84.6839685 64.0048953,86.8003597 L64,87 L64,92 C64,94.1421954 65.6839685,95.8910789 67.8003597,95.9951047 L68,96 L108,96 C110.142195,96 111.891079,94.3160315 111.995105,92.1996403 L112,92 L112,87 C112,84.790861 110.209139,83 108,83 Z M46.6372514,39.8508374 C46.4784466,39.8505566 46.3218582,39.888101 46.1804466,39.9603631 C45.7237803,40.1937223 45.5230655,40.7298115 45.6979346,41.1989632 L45.7450107,41.3058725 L63.4745885,76 L73.9015885,76 L68.2375885,39.888 L46.6372514,39.8508374 Z M107.750588,39.958 L102.097588,76 L112.573588,76 L128.027442,45.8111358 C128.315154,45.2490939 128.465727,44.6269251 128.466843,43.9955236 C128.470631,41.8533316 126.789757,40.1014734 124.673553,39.9937059 L124.473922,39.9884576 L107.750588,39.958 Z M76.2385885,39.902 L81.9015885,76 L94.0975885,76 L99.7535885,39.944 L76.2385885,39.902 Z M88,27 C77.9522707,27 68.5967624,28.8375253 60.7599949,32.0001336 L70.9648965,32.0001801 C70.9765962,32.00006 70.9882975,32 71,32 L71.5785382,32 L71.6115885,32 L104.387193,32.0001448 C104.398606,32.0000483 104.410029,32 104.421462,32 L105,32 L105.030588,32 L115.240005,32.0001336 C107.403238,28.8375253 98.0477293,27 88,27 Z"/>
</svg>
